<svg width="16" height="10" fill="none" xmlns="http://www.w3.org/2000/svg"><path d="M15.337 7.807c-.476-.571-1.037-1.059-1.567-1.577-.479-.466-.509-.737-.124-1.276.42-.588.871-1.153 1.295-1.739.395-.547.8-1.092 1.008-1.747.132-.417.015-.6-.412-.674a1.32 1.32 0 00-.225-.013L12.777.778c-.312-.005-.485.131-.595.408-.15.374-.303.748-.48 1.109-.404.818-.854 1.61-1.485 2.28-.139.147-.292.334-.525.257-.29-.106-.376-.586-.372-.748l-.002-2.926C9.26.74 9.168.554 8.754.473H6.12c-.351 0-.527.136-.715.356-.108.127-.141.21.081.251.438.083.684.366.75.804.104.7.097 1.404.036 2.107a1.97 1.97 0 01-.134.601c-.128.302-.333.363-.603.178-.245-.168-.417-.405-.585-.643a14.149 14.149 0 01-1.546-2.866C3.285.97 3.08.792 2.77.787a64.62 64.62 0 00-2.282 0c-.458.01-.594.232-.408.647C.91 3.276 1.831 5.068 3.035 6.7c.618.837 1.328 1.576 2.244 2.1 1.04.594 2.157.773 3.335.718.552-.026.717-.17.743-.719.017-.376.06-.75.245-1.088.182-.331.458-.395.776-.188.159.103.293.234.42.373.31.34.609.69.931 1.018.404.41.883.654 1.485.604h2.33c.375-.024.57-.484.354-.903a4.487 4.487 0 00-.56-.808z" fill="#000"/></svg>