<svg width="65" height="42" fill="none" xmlns="http://www.w3.org/2000/svg"><path d="M32.518 20.826c5.742 0 10.413-4.67 10.413-10.413C42.93 4.671 38.26 0 32.518 0S22.104 4.671 22.104 10.413s4.672 10.413 10.414 10.413zm0-17.076a6.67 6.67 0 016.663 6.663 6.67 6.67 0 01-6.663 6.663 6.67 6.67 0 01-6.663-6.663 6.67 6.67 0 016.663-6.663zm20.034 16.7c4.366 0 7.918-3.552 7.918-7.917 0-4.366-3.552-7.918-7.918-7.918s-7.918 3.552-7.918 7.918c0 4.365 3.552 7.917 7.918 7.917zm0-12.085a4.172 4.172 0 014.168 4.167 4.172 4.172 0 01-4.168 4.168 4.172 4.172 0 01-4.167-4.168 4.172 4.172 0 014.167-4.167zm3.928 14.252h-7.845c-2.26 0-4.439 1.023-5.959 2.713a11.291 11.291 0 00-5.492-1.418h-9.352a11.29 11.29 0 00-5.532 1.44 7.94 7.94 0 00-5.935-2.643H8.52c-4.398 0-7.977 3.578-7.977 7.976v2.968c0 1.035.84 1.875 1.876 1.875H16.47v4.597c0 1.035.84 1.875 1.875 1.875h28.326c1.035 0 1.875-.84 1.875-1.875v-4.689h14.035c1.036 0 1.876-.84 1.876-1.875v-2.968c0-4.398-3.578-7.976-7.977-7.976zM4.294 30.685A4.23 4.23 0 018.52 26.46h7.845c1.15 0 2.218.46 2.999 1.248a11.365 11.365 0 00-2.343 4.07H4.294v-1.092zm40.502 7.565H20.22v-2.977c0-4.197 3.415-7.611 7.612-7.611h9.352c4.197 0 7.612 3.414 7.612 7.611v2.977zm15.91-6.564h-12.74a11.37 11.37 0 00-2.342-4.011c.808-.81 1.908-1.308 3.011-1.308h7.845a4.23 4.23 0 014.227 4.226v1.093zM12.391 20.45c4.366 0 7.918-3.552 7.918-7.917 0-4.366-3.552-7.918-7.918-7.918s-7.918 3.552-7.918 7.918c0 4.365 3.552 7.917 7.918 7.917zm0-12.085a4.172 4.172 0 014.168 4.167 4.172 4.172 0 01-4.168 4.168 4.172 4.172 0 01-4.167-4.168 4.172 4.172 0 014.167-4.167z" fill="#931C1F"/></svg>