<svg width="18" height="12" fill="none" xmlns="http://www.w3.org/2000/svg"><path d="M18 0H0v12h18V0z" fill="#F0F0F0"/><path d="M10.125 0h-2.25v4.875H0v2.25h7.875V12h2.25V7.125H18v-2.25h-7.875V0z" fill="#D80027"/><path d="M13.844 8.087L18 10.396v-2.31h-4.156zm-2.888 0L18 12v-1.107l-5.051-2.806h-1.992zM16.123 12l-5.167-2.871v2.87h5.167z" fill="#0052B4"/><path d="M10.956 8.087L18 12v-1.107l-5.051-2.806h-1.992z" fill="#F0F0F0"/><path d="M10.956 8.087L18 12v-1.107l-5.051-2.806h-1.992z" fill="#D80027"/><path d="M3.176 8.087L0 9.85V8.087h3.176zm3.868.497V12H.896l6.148-3.416z" fill="#0052B4"/><path d="M5.052 8.087L0 10.893V12l7.043-3.913H5.052z" fill="#D80027"/><path d="M4.156 3.913L0 1.604v2.309h4.156zm2.887 0L0 0v1.106l5.052 2.807h1.991zM1.876 0l5.167 2.87V0H1.876z" fill="#0052B4"/><path d="M7.043 3.913L0 0v1.106l5.052 2.807h1.991z" fill="#F0F0F0"/><path d="M7.043 3.913L0 0v1.106l5.052 2.807h1.991z" fill="#D80027"/><path d="M14.823 3.913L18 2.15v1.764h-3.176zm-3.867-.498V0h6.147l-6.147 3.415z" fill="#0052B4"/><path d="M12.948 3.913l5.051-2.807V0l-7.043 3.913h1.992z" fill="#D80027"/></svg>