<svg width="38" height="43" fill="none" xmlns="http://www.w3.org/2000/svg"><path d="M18.635 42.817h0c.305.11.647.11.952 0h0l13.43-4.899c.53-.193.882-.686.882-1.24v-4.655c1.917-.418 3.358-2.087 3.358-4.081 0-1.994-1.44-3.663-3.358-4.081v-4.328c0-.436-.22-.843-.586-1.09a1.389 1.389 0 00-1.249-.15s0 0 0 0l-2.343.854a14.823 14.823 0 00-5.413-3.45c2.003-1.513 3.297-3.878 3.297-6.533C27.605 4.604 23.792.9 19.11.9c-4.68 0-8.493 3.705-8.493 8.264 0 2.655 1.293 5.02 3.297 6.532a14.823 14.823 0 00-5.414 3.45l-2.342-.854s0 0 0 0a1.388 1.388 0 00-1.25.151 1.315 1.315 0 00-.586 1.09v4.328c-1.917.418-3.357 2.087-3.357 4.081 0 1.994 1.44 3.663 3.357 4.081v4.655c0 .554.354 1.047.883 1.24l13.43 4.899zM13.336 9.164c0-3.093 2.588-5.615 5.775-5.615 3.187 0 5.776 2.522 5.776 5.615 0 3.094-2.589 5.615-5.776 5.615s-5.775-2.521-5.775-5.615zm5.775 8.264c2.867 0 5.608.988 7.768 2.756l-7.768 2.833-7.767-2.833a12.257 12.257 0 017.767-2.756zM3.684 27.942c0-.843.706-1.533 1.579-1.533h.739v3.066h-.74c-.872 0-1.578-.69-1.578-1.533zm3.357 4.122c.96-.228 1.679-1.073 1.679-2.08V25.9c0-1.008-.718-1.853-1.679-2.08v-2.378l10.711 3.907v14.316L7.042 35.76v-3.695zm13.43-6.714l10.71-3.907v2.377c-.96.228-1.678 1.073-1.678 2.08v4.083c0 1.008.718 1.853 1.678 2.08v3.696l-10.71 3.907V25.35zm12.49 4.125h-.74v-3.066h.74c.872 0 1.578.69 1.578 1.533s-.706 1.533-1.579 1.533z" fill="#931C1F" stroke="#931C1F" stroke-width=".2"/></svg>