<svg width="43" height="42" fill="none" xmlns="http://www.w3.org/2000/svg"><g clip-path="url(#clip0)" fill="#931C1F"><path d="M27.24 25.893H15.674c-4.326 0-7.846 3.52-7.846 7.847V42h27.257v-8.26c0-4.327-3.52-7.847-7.847-7.847zm-7.022 9.186v2.69l-8.07-8.07a5.371 5.371 0 011.687-1.003l6.383 6.383zm2.478 0l6.383-6.383a5.373 5.373 0 011.689 1.003l-8.072 8.071v-2.69zm3.204-6.708l-4.443 4.443-4.442-4.443H25.9zm-15.593 5.37c0-.705.137-1.377.385-1.994l7.774 7.775h-8.16V33.74zm22.301 5.781h-8.16l7.775-7.774c.248.616.385 1.288.385 1.992v5.782zM28.89 18.46v-5.631c0-.406-.044-.801-.128-1.182l2.607-1.431v8.656h2.478V8.856l1.25-.687L21.457 0 7.817 8.17l6.335 3.477a5.509 5.509 0 00-.129 1.182v5.63c0 4.1 3.335 7.434 7.434 7.434s7.434-3.335 7.434-7.434zM12.797 8.075l8.66-5.188 8.662 5.188-2.422 1.33a5.512 5.512 0 00-4.326-2.097h-3.827c-1.75 0-3.313.82-4.325 2.096l-2.422-1.33zm13.564 4.189h-9.806a3.047 3.047 0 012.99-2.478h3.826a3.047 3.047 0 012.99 2.478zm-4.903 11.15A4.962 4.962 0 0116.5 18.46v-3.716h9.912v3.716a4.962 4.962 0 01-4.956 4.956z"/></g><defs><clipPath id="clip0"><path fill="#fff" transform="translate(.457)" d="M0 0h42v42H0z"/></clipPath></defs></svg>